<?xml version="1.0" standalone="no"?>
<!DOCTYPE svg PUBLIC "-//W3C//DTD SVG 20010904//EN"
 "http://www.w3.org/TR/2001/REC-SVG-20010904/DTD/svg10.dtd">
<svg version="1.0" xmlns="http://www.w3.org/2000/svg"
 width="996.000000pt" height="704.000000pt" viewBox="0 0 996.000000 704.000000"
 preserveAspectRatio="xMidYMid meet">

<g transform="translate(0.000000,704.000000) scale(0.100000,-0.100000)"
fill="#000000" stroke="none">
<path d="M5005 5190 c-93 -5 -235 -14 -315 -20 -159 -12 -490 -56 -499 -66 -3
-3 14 -3 39 0 103 14 454 37 732 47 463 17 1028 -7 1558 -67 276 -30 537 -69
609 -90 109 -31 293 -138 688 -401 114 -77 226 -149 248 -162 35 -20 31 -14
-30 44 -193 184 -679 511 -845 570 -106 38 -574 98 -1015 130 -240 18 -933 27
-1170 15z"/>
<path d="M4835 5050 c-508 -22 -979 -76 -1074 -124 -46 -24 -234 -189 -346
-306 -48 -50 -21 -31 130 89 105 84 211 163 236 176 34 18 82 28 175 40 71 8
144 17 162 20 18 2 32 0 30 -5 -2 -4 -88 -107 -193 -227 l-190 -220 -230 -6
c-236 -7 -469 -23 -540 -37 -22 -4 213 -8 523 -9 628 -1 652 -3 797 -68 l80
-36 245 2 c394 4 888 -18 1284 -55 162 -16 169 -15 186 2 24 25 214 647 205
673 -8 26 -22 30 -160 46 -341 40 -951 61 -1320 45z m-670 -325 l-197 -235
-50 0 c-27 0 -48 4 -46 10 2 5 90 110 197 234 l194 225 46 3 c25 2 48 2 50 1
2 -1 -85 -108 -194 -238z"/>
<path d="M6463 4961 c-18 -11 -39 -33 -46 -48 -12 -22 -90 -264 -213 -655 -5
-17 23 -18 503 -18 377 0 518 3 548 13 34 10 -13 13 -325 18 -494 8 -452 6
-448 26 3 14 17 17 91 17 104 1 117 11 117 87 l0 48 -31 -9 c-18 -5 -66 -12
-108 -15 l-76 -6 65 35 c35 20 71 43 79 51 14 13 8 15 -44 14 -97 -1 -164 -14
-186 -35 -28 -29 -36 -87 -14 -120 16 -25 17 -25 36 -8 26 23 24 11 -6 -36
-25 -39 -26 -40 -85 -40 -33 0 -60 3 -60 6 0 16 183 570 192 582 6 6 27 12 47
12 115 0 525 -65 573 -91 12 -6 56 -84 104 -182 46 -95 84 -169 84 -165 0 15
-73 215 -110 298 -22 50 -40 93 -40 96 0 16 39 -20 50 -46 8 -19 40 -50 89
-84 42 -29 101 -80 131 -112 53 -59 150 -200 150 -219 0 -15 -78 -89 -120
-114 -41 -24 -33 -26 31 -7 108 33 169 85 169 145 0 60 -146 277 -275 407 -61
61 -78 73 -130 87 -113 30 -435 74 -605 83 -94 5 -108 3 -137 -15z"/>
<path d="M8165 4500 c-27 -4 -45 -8 -39 -8 140 -21 242 -33 343 -41 104 -9
133 -15 188 -41 36 -16 69 -30 74 -30 12 0 -8 50 -29 74 -9 10 -35 27 -57 37
-35 16 -65 18 -235 17 -107 -1 -217 -4 -245 -8z"/>
<path d="M2816 4400 l-199 -5 -66 -72 -66 -73 -250 -25 c-590 -60 -980 -120
-1059 -163 -44 -23 -124 -108 -113 -118 2 -2 34 9 70 26 190 86 638 170 1227
230 236 24 742 61 748 56 2 -3 -22 -18 -54 -35 -58 -30 -58 -30 -25 -31 19 0
154 -7 300 -15 l266 -15 325 69 c179 38 321 70 317 70 -36 4 -614 -52 -624
-60 -7 -6 -15 -19 -18 -30 -4 -11 -11 -17 -16 -14 -14 9 -11 49 8 121 11 41
14 67 8 73 -12 12 -494 18 -779 11z"/>
<path d="M7855 4340 c-89 -10 -181 -34 -253 -67 -31 -14 -75 -31 -97 -39 -82
-26 15 -15 140 17 160 41 381 51 567 24 120 -16 338 -67 427 -99 24 -9 46 -14
48 -12 7 7 -206 86 -313 116 -181 51 -383 74 -519 60z"/>
<path d="M2948 4223 c7 -3 16 -2 19 1 4 3 -2 6 -13 5 -11 0 -14 -3 -6 -6z"/>
<path d="M8767 4209 c74 -36 126 -144 139 -290 l7 -69 -114 -2 c-172 -4 -213
-1 -291 21 -40 11 -73 19 -74 18 -2 -1 10 -11 25 -21 64 -44 122 -173 120
-271 0 -44 2 -47 -36 46 -17 43 -73 103 -117 127 -22 12 -55 17 -111 17 -72 0
-86 -3 -143 -34 -74 -41 -163 -132 -210 -216 -29 -53 -32 -56 -26 -25 18 97
92 228 168 298 43 40 107 78 156 93 48 14 -154 9 -218 -6 -34 -8 -109 -36
-165 -62 l-102 -48 -735 -1 c-466 -1 -713 2 -675 7 33 5 247 25 475 43 l415
34 -849 1 -849 1 60 -30 c68 -34 159 -123 192 -188 54 -105 66 -260 31 -396
-31 -121 -38 -122 -37 -5 1 123 -14 201 -55 287 -86 183 -304 275 -505 213
-124 -38 -235 -119 -320 -235 -51 -68 -53 -66 -14 12 69 137 178 247 306 308
l69 34 -387 0 -388 0 34 -33 c22 -23 46 -67 71 -133 32 -84 37 -107 33 -151
-5 -47 -51 -153 -66 -153 -3 0 -6 42 -6 93 0 75 -5 102 -25 147 -40 93 -78
137 -143 170 l-60 30 -301 0 -301 0 65 -24 c69 -24 176 -81 187 -99 4 -7 0 -8
-13 -3 -24 9 -127 32 -177 39 -32 5 -37 3 -33 -11 80 -284 77 -355 -16 -403
-55 -28 -72 -24 -38 9 29 30 50 86 50 137 0 38 -45 197 -70 245 -27 53 -99
115 -156 133 -56 18 -103 22 -484 43 -328 18 -1104 26 -1350 14 -199 -10 -396
-27 -455 -40 -53 -12 -85 -49 -85 -100 0 -53 64 -299 94 -363 28 -57 26 -70
-5 -41 -46 41 -102 192 -134 359 -10 50 -21 94 -26 99 -12 13 -97 -22 -110
-46 -14 -27 -7 -71 37 -215 50 -167 71 -210 113 -239 l36 -24 1752 0 c1318 0
1758 -3 1778 -12 14 -6 28 -22 31 -35 13 -50 -19 -123 -53 -123 -12 0 -11 4 1
22 9 12 16 33 16 45 l0 23 -1877 0 c-1827 -1 -1877 -1 -1856 -19 12 -10 53
-27 90 -36 66 -18 71 -22 178 -130 90 -91 124 -118 185 -148 139 -69 100 -67
1261 -67 638 0 1087 4 1150 10 202 20 427 72 603 140 43 17 81 28 84 25 9 -9
-22 -59 -65 -102 -119 -120 -381 -187 -837 -213 -231 -13 -1672 -13 -1886 0
-285 18 -449 55 -472 105 -8 19 -6 32 10 66 l21 42 -45 -44 c-25 -24 -47 -54
-51 -67 -8 -34 23 -71 83 -99 41 -18 56 -31 60 -51 12 -47 61 -148 102 -208
51 -76 167 -185 238 -225 30 -17 53 -33 50 -36 -2 -3 -136 -13 -298 -23 -414
-27 -601 -42 -616 -50 -27 -14 1239 -20 4162 -20 2988 0 4208 6 4171 21 -17 7
-367 33 -715 54 -47 3 -118 8 -158 11 l-72 6 50 44 c92 84 175 233 213 385 24
98 39 245 32 320 l-7 66 54 17 c29 10 74 31 101 48 46 30 177 162 177 179 0 5
12 9 26 9 16 0 37 11 53 29 38 41 101 169 108 219 5 39 4 42 -23 52 -16 6 -38
9 -49 6 -18 -4 -18 -3 4 15 13 10 29 19 37 19 35 0 12 308 -36 461 -37 121
-100 189 -175 189 l-40 0 42 -21z m-7327 -379 c0 -5 -10 -10 -22 -10 -30 -1
-50 -17 -77 -60 -25 -42 -29 -133 -7 -185 19 -44 3 -46 -17 -2 -64 134 -22
267 84 267 21 0 39 -4 39 -10z m1945 -14 c-121 -52 -128 -241 -14 -371 43 -49
18 -44 -37 7 -100 92 -127 229 -64 318 24 33 75 60 115 59 l30 0 -30 -13z
m-1865 -23 c84 -57 120 -195 76 -285 -16 -34 -22 -38 -57 -38 -59 0 -121 61
-150 150 -7 18 -7 14 -3 -15 8 -53 37 -107 74 -139 40 -33 18 -34 -26 -1 -48
36 -76 104 -76 179 0 125 84 203 162 149z m1984 -13 c40 -15 103 -87 120 -137
19 -54 21 -132 5 -167 -39 -85 -185 -40 -243 75 -32 66 -35 43 -2 -26 21 -46
52 -80 102 -112 11 -6 14 -12 8 -12 -29 -2 -105 61 -133 111 -54 95 -51 190 9
250 31 30 84 38 134 18z m696 -142 c0 -38 46 -124 77 -146 35 -25 104 -42 136
-34 19 5 20 4 8 -11 -19 -23 -76 -37 -111 -27 -79 23 -130 97 -130 188 0 29 5
52 10 52 6 0 10 -10 10 -22z m179 -12 c18 -21 10 -70 -12 -74 -15 -3 -16 0 -5
23 9 19 9 28 0 37 -7 7 -12 16 -12 20 0 13 17 9 29 -6z m914 -37 c158 -52 276
-161 362 -333 54 -106 60 -150 7 -50 -69 129 -142 214 -236 273 -64 40 -76 39
-30 -1 38 -33 94 -104 94 -119 0 -4 -22 14 -49 41 -78 78 -167 116 -297 128
l-79 7 49 38 c58 44 88 47 179 16z m2974 -20 c75 -36 152 -172 167 -294 l6
-50 -24 66 c-81 223 -224 297 -348 179 -23 -22 -42 -39 -44 -38 -1 2 6 21 17
43 50 103 134 138 226 94z m-4138 -85 c10 -35 11 -48 2 -57 -12 -13 -231 -58
-230 -48 0 3 31 21 68 39 41 19 82 48 102 71 19 22 36 40 39 40 3 1 12 -20 19
-45z m1156 -109 c83 -39 163 -122 208 -215 114 -230 77 -492 -92 -661 -101
-100 -214 -141 -331 -121 -205 36 -358 229 -376 473 -17 241 112 467 309 540
78 29 202 22 282 -16z m2962 5 c134 -81 195 -487 114 -750 -42 -134 -120 -222
-184 -206 -41 10 -90 59 -119 118 -47 96 -60 162 -65 338 -4 145 -2 176 16
255 27 114 61 184 111 229 46 41 79 46 127 16z m-6895 -310 c35 -16 89 -34
119 -40 36 -7 432 -9 1140 -8 l1085 3 71 35 c39 19 68 30 66 23 -9 -22 -96
-83 -134 -93 -24 -7 -424 -9 -1146 -8 l-1108 3 -50 28 c-48 27 -126 87 -113
87 3 0 35 -13 70 -30z m5856 -6 c122 -3 224 -10 227 -14 14 -22 -891 -34
-1198 -16 -461 26 304 51 971 30z m496 -226 c-45 -86 -157 -204 -221 -234 -23
-10 -43 -23 -43 -27 0 -4 14 -44 31 -88 33 -86 108 -205 158 -253 38 -37 39
-43 4 -40 -108 12 -1408 43 -1810 44 -178 1 -323 2 -323 4 0 2 38 41 84 88 72
73 92 101 135 189 51 107 65 160 77 289 6 62 9 70 17 50 5 -14 10 -73 11 -133
l1 -107 800 2 c800 3 800 3 848 25 61 28 140 104 208 198 29 41 55 73 57 70 2
-2 -13 -36 -34 -77z m171 -137 c51 -229 152 -386 261 -407 47 -9 73 0 127 41
59 45 60 32 2 -33 -76 -84 -147 -91 -234 -22 -122 97 -201 310 -201 546 0 93
13 104 22 18 4 -37 14 -101 23 -143z m-3501 31 c-28 -27 -76 -61 -107 -78 -32
-16 -57 -33 -57 -37 0 -5 14 -42 31 -82 38 -93 95 -182 153 -240 l44 -44 -41
-5 c-23 -3 -276 -8 -562 -10 -502 -6 -1070 -19 -1262 -31 -51 -3 -93 -2 -93 2
0 5 23 23 51 42 83 57 173 162 226 265 l47 93 440 6 c243 3 491 11 551 17 250
25 477 76 575 130 57 31 58 22 4 -28z m282 -148 c62 -123 173 -225 301 -275
82 -33 251 -33 338 -1 139 52 251 155 323 300 25 52 48 89 50 83 9 -28 -40
-151 -87 -218 -79 -113 -190 -198 -317 -245 -85 -31 -215 -30 -304 3 -212 80
-382 300 -379 493 l0 51 24 -68 c13 -38 36 -93 51 -123z m-2767 1 c73 -75 212
-126 300 -110 30 5 34 4 23 -7 -9 -9 -41 -13 -105 -12 -117 1 -185 25 -262 96
-62 56 -69 78 -27 78 19 0 40 -13 71 -45z"/>
<path d="M5021 3354 c-90 -32 -173 -105 -225 -195 -36 -63 -33 -70 10 -21 45
53 107 89 164 97 l45 5 -38 -15 c-76 -29 -157 -113 -157 -162 0 -27 191 -128
208 -111 19 19 25 1 8 -24 -20 -28 -20 -74 -2 -110 12 -23 12 -28 1 -28 -23 0
-156 -152 -153 -175 5 -31 81 -65 149 -65 82 0 87 8 81 126 -6 119 10 124 46
16 13 -40 27 -72 32 -72 14 0 62 63 82 108 11 24 26 73 34 110 l14 67 -5 -75
c-3 -60 -11 -89 -40 -147 -78 -158 -224 -222 -365 -158 -46 21 -51 22 -30 5
64 -50 181 -59 265 -19 103 49 190 175 202 294 9 87 26 80 21 -10 l-3 -77 17
39 c9 21 17 48 17 61 1 12 6 22 12 22 8 0 10 -20 6 -67 -6 -64 -5 -66 8 -38 8
17 20 55 26 85 18 75 25 28 9 -54 -24 -122 -99 -240 -189 -298 -52 -33 -48
-37 9 -8 142 72 231 238 232 432 0 149 -38 257 -127 356 -91 101 -250 148
-364 106z m79 -300 c0 -66 -3 -84 -14 -84 -16 0 -22 22 -31 116 l-7 62 26 -5
c25 -5 26 -7 26 -89z m74 -113 c16 -18 21 -18 56 -6 43 15 50 12 50 -22 0 -20
-5 -23 -40 -23 -37 0 -40 -2 -40 -28 0 -38 -26 -72 -55 -72 -53 0 -76 101 -33
147 26 28 40 29 62 4z"/>
<path d="M4780 2961 c-30 -57 4 -253 46 -259 26 -4 175 108 169 126 -3 8 -5
30 -5 51 l0 37 -87 32 c-103 38 -109 38 -123 13z"/>
<path d="M8160 3363 c-48 -18 -89 -83 -118 -190 l-19 -68 45 -57 c25 -32 48
-58 51 -58 3 0 6 -29 6 -65 0 -67 -3 -73 -23 -53 -9 9 -21 3 -51 -26 -43 -42
-43 -40 -19 -149 6 -27 14 -45 18 -40 4 4 22 45 40 91 18 45 36 82 41 82 10 0
8 -7 -26 -137 -12 -46 -20 -85 -17 -88 3 -3 15 -5 27 -5 51 0 116 103 136 217
25 136 28 142 25 46 -2 -91 7 -105 19 -31 11 61 27 57 19 -4 -21 -162 -70
-274 -125 -285 -38 -7 -23 -26 17 -21 39 4 88 72 116 161 20 63 23 93 23 237
-1 140 -4 177 -23 243 -28 99 -53 148 -92 181 -32 26 -42 29 -70 19z m-23
-250 c5 -54 8 -100 6 -103 -8 -10 -21 24 -27 74 -11 83 -16 95 -34 89 -14 -5
-14 -3 2 15 35 40 43 28 53 -75z m107 -165 c7 -29 6 -42 -9 -64 l-18 -28 -18
23 c-22 27 -24 50 -7 86 16 36 41 28 52 -17z"/>
<path d="M8010 2955 c0 -47 3 -85 6 -85 20 0 64 45 69 71 6 26 2 36 -26 65
-18 19 -37 34 -41 34 -4 0 -8 -38 -8 -85z"/>
<path d="M2600 4179 c-151 -21 -276 -38 -277 -38 -1 -1 -20 -25 -42 -54 l-39
-54 -144 -6 c-144 -6 -377 -33 -388 -44 -3 -3 18 -3 45 1 28 3 221 9 430 12
339 6 541 1 940 -21 l80 -4 -65 9 c-125 17 -436 41 -622 47 -104 3 -188 9
-188 12 0 17 143 62 395 127 116 29 197 53 180 52 -16 0 -154 -18 -305 -39z"/>
<path d="M5135 4169 c-350 -14 -498 -37 -618 -93 -46 -22 -133 -94 -124 -102
2 -2 26 5 54 16 195 74 976 146 1823 168 232 6 266 8 185 13 -140 9 -1090 8
-1320 -2z"/>
<path d="M7562 4167 c31 -9 42 -21 78 -84 24 -40 54 -101 67 -135 23 -57 24
-63 9 -74 -10 -7 -54 -17 -99 -23 -208 -29 -209 -30 -37 -28 162 2 167 3 225
32 80 40 85 54 74 184 -13 146 -6 141 -198 140 -125 -1 -149 -4 -119 -12z"/>
<path d="M7305 4060 c-8 -16 -15 -34 -15 -40 0 -6 47 -10 134 -10 l134 0 11
31 c6 18 11 36 11 40 0 5 -58 9 -130 9 l-129 0 -16 -30z m233 -2 c-3 -9 -36
-14 -108 -16 -92 -2 -102 -1 -90 13 16 20 204 23 198 3z"/>
<path d="M3233 3963 c9 -2 25 -2 35 0 9 3 1 5 -18 5 -19 0 -27 -2 -17 -5z"/>
<path d="M991 1738 c-24 -84 -45 -158 -48 -165 -4 -10 16 -13 90 -13 l94 0 35
123 35 122 91 3 c70 2 92 0 92 -10 0 -7 -13 -60 -30 -118 -17 -58 -30 -108
-30 -112 0 -5 42 -8 93 -8 l92 0 29 108 c41 152 33 143 123 140 102 -4 103 -8
66 -139 l-30 -104 90 -3 c49 -1 91 -1 93 1 10 10 74 249 74 274 0 16 -5 34
-12 41 -9 9 -124 12 -458 12 l-446 0 -43 -152z"/>
<path d="M2003 1773 c-45 -164 -46 -169 -33 -192 11 -21 15 -21 398 -21 l388
0 43 148 c23 81 44 155 47 165 5 15 -4 17 -89 17 l-93 0 -35 -122 -34 -123
-190 -3 c-105 -1 -200 0 -212 3 -30 7 -30 38 2 146 13 46 25 87 25 92 0 4 -42
7 -93 7 l-92 0 -32 -117z"/>
<path d="M2937 1879 c-49 -28 -76 -168 -38 -189 12 -6 120 -10 280 -10 216 0
261 -2 261 -14 0 -23 -34 -26 -322 -26 -268 0 -277 -1 -282 -20 -19 -67 -59
-60 354 -60 l371 0 24 24 c35 35 58 121 42 155 l-12 26 -273 3 c-149 1 -272 6
-272 10 0 29 30 32 311 32 l287 0 11 31 c6 18 11 36 11 40 0 13 -731 11 -753
-2z"/>
<path d="M3768 1863 c-27 -28 -56 -105 -78 -205 -10 -42 -10 -60 -1 -76 12
-22 13 -22 384 -22 l373 0 11 40 10 40 -273 0 c-150 0 -279 3 -288 6 -35 13
-2 142 40 158 9 4 141 6 293 6 l276 -1 12 40 12 41 -373 0 -372 0 -26 -27z"/>
<path d="M4581 1823 c-44 -152 -71 -248 -71 -255 0 -4 160 -8 355 -8 l354 0
10 38 c6 20 11 39 11 42 0 3 -117 4 -260 2 -143 -2 -260 1 -260 5 0 5 15 61
34 126 l34 117 -94 0 -93 0 -20 -67z"/>
<path d="M5331 1738 c-24 -84 -45 -158 -48 -165 -4 -11 69 -13 389 -13 l394 0
11 40 10 40 -293 0 c-287 0 -294 0 -294 20 0 19 7 20 214 20 l214 0 5 28 c3
15 9 35 12 45 7 16 -7 17 -204 17 -116 0 -211 4 -211 8 0 29 30 32 316 32
l292 0 10 40 10 40 -392 0 -392 0 -43 -152z"/>
<path d="M6610 1862 c-39 -40 -93 -221 -80 -272 l6 -25 375 -3 376 -2 11 39
c7 21 12 40 12 42 0 2 -127 4 -281 4 -314 0 -308 -1 -295 68 4 20 18 50 32 67
l26 30 283 0 c275 0 284 1 289 20 3 11 9 29 12 40 5 20 1 20 -366 20 l-372 0
-28 -28z"/>
<path d="M7513 1727 l-182 -162 95 -3 c93 -3 96 -2 132 28 l37 30 148 0 148 0
17 -30 17 -30 98 0 c54 0 97 4 95 9 -1 5 -41 79 -88 165 l-85 156 -125 0 -125
0 -182 -163z m305 24 c12 -21 22 -41 22 -45 0 -9 -140 -7 -140 2 0 7 81 81 91
82 3 0 15 -17 27 -39z"/>
<path d="M8255 1878 c-2 -7 -24 -82 -49 -166 l-44 -153 96 3 96 3 11 45 11 45
199 0 c222 0 210 4 190 -67 l-7 -28 94 0 95 0 13 55 c10 42 10 58 1 69 -9 11
-7 20 14 42 31 34 50 100 38 134 l-8 25 -373 3 c-293 2 -373 0 -377 -10z m561
-83 c4 -8 1 -22 -6 -30 -10 -12 -47 -15 -206 -15 -200 0 -205 1 -184 41 10 18
23 19 201 19 160 0 191 -2 195 -15z"/>
</g>
</svg>
