<?xml version="1.0" standalone="no"?>
<!DOCTYPE svg PUBLIC "-//W3C//DTD SVG 20010904//EN"
 "http://www.w3.org/TR/2001/REC-SVG-20010904/DTD/svg10.dtd">
<svg version="1.0" xmlns="http://www.w3.org/2000/svg"
 width="450.000000pt" height="450.000000pt" viewBox="0 0 450.000000 450.000000"
 preserveAspectRatio="xMidYMid meet">

<g transform="translate(0.000000,450.000000) scale(0.100000,-0.100000)"
fill="#000000" stroke="none">
<path d="M1987 3243 c-4 -3 -7 -30 -7 -60 l0 -53 44 0 c29 0 52 -7 70 -21 26
-20 26 -22 26 -143 l0 -123 -29 -6 c-221 -44 -354 -320 -257 -532 39 -86 77
-128 186 -201 l100 -68 0 -80 c0 -177 -66 -303 -184 -357 -41 -18 -41 -18 -58
4 -33 42 -50 114 -47 196 4 67 10 89 41 151 21 40 35 76 33 81 -3 4 -23 21
-44 38 l-39 31 -51 -76 c-81 -121 -112 -253 -87 -373 40 -191 188 -333 392
-376 220 -47 451 13 594 153 240 237 190 576 -114 778 l-56 37 1 171 c1 101 4
161 9 146 4 -14 8 -40 9 -57 l1 -33 55 0 c30 0 55 3 55 8 0 4 7 81 15 172 8
91 15 171 15 178 0 8 -23 12 -80 12 l-80 0 0 124 c0 123 0 125 26 145 18 14
41 21 70 21 l44 0 0 60 0 60 -323 0 c-178 0 -327 -3 -330 -7z m603 -53 c0 -5
-11 -10 -24 -10 -30 0 -87 -39 -103 -70 -8 -16 -13 -69 -13 -144 l0 -119 -97
6 c-54 4 -117 7 -140 7 l-43 0 0 119 c0 105 -2 121 -21 145 -24 30 -69 56 -99
56 -11 0 -20 5 -20 10 0 6 100 10 280 10 180 0 280 -4 280 -10z m-97 -397 c87
-4 117 -9 113 -18 -2 -7 -8 -65 -12 -129 -4 -64 -11 -119 -15 -122 -5 -3 -14
15 -20 40 -14 58 -67 119 -121 141 -64 25 -164 31 -229 12 -69 -20 -123 -71
-138 -131 -12 -50 -6 -80 26 -123 23 -31 23 -37 21 -198 l-3 -166 -82 56 c-86
59 -115 91 -153 165 -31 61 -38 158 -16 234 52 178 191 262 416 251 52 -3 148
-8 213 -12z m-77 -134 l29 -14 0 -390 c0 -381 -1 -391 -22 -445 -66 -160 -219
-266 -397 -273 -70 -2 -80 11 -30 38 71 38 132 133 159 247 12 50 15 143 15
446 0 210 1 382 3 382 1 0 20 7 42 15 48 18 157 15 201 -6z m216 -580 c48 -47
77 -86 100 -135 31 -64 33 -76 33 -175 0 -101 -1 -108 -38 -181 -86 -176 -271
-277 -502 -278 -207 0 -373 87 -454 239 -71 134 -55 319 39 452 37 50 40 22 7
-49 -30 -62 -32 -75 -32 -172 0 -94 3 -111 27 -161 72 -146 218 -226 397 -217
136 7 231 60 283 162 27 52 29 153 4 210 -13 33 -15 49 -6 95 5 30 10 113 10
183 l0 129 32 -18 c17 -10 62 -48 100 -84z m-168 -361 c27 -101 -44 -212 -161
-254 -67 -23 -273 -12 -273 16 0 4 24 10 53 13 120 12 260 95 327 194 19 29
38 52 41 53 4 0 9 -10 13 -22z"/>
</g>
</svg>
